<?xml version="1.0" encoding="UTF-8" standalone="no"?>
<!-- Created with Inkscape (http://www.inkscape.org/) -->

<svg
   xmlns:dc="http://purl.org/dc/elements/1.1/"
   xmlns:cc="http://creativecommons.org/ns#"
   xmlns:rdf="http://www.w3.org/1999/02/22-rdf-syntax-ns#"
   xmlns:svg="http://www.w3.org/2000/svg"
   xmlns="http://www.w3.org/2000/svg"
   xmlns:sodipodi="http://sodipodi.sourceforge.net/DTD/sodipodi-0.dtd"
   xmlns:inkscape="http://www.inkscape.org/namespaces/inkscape"
   width="85.764"
   height="161.582"
   viewBox="0 0 85.764001 161.582"
   id="svg2"
   version="1.1"
   inkscape:version="0.91 r13725"
   sodipodi:docname="fablablivresp.svg">
  <defs
     id="defs4" />
  <sodipodi:namedview
     id="base"
     pagecolor="#ffffff"
     bordercolor="#666666"
     borderopacity="1.0"
     inkscape:pageopacity="0.0"
     inkscape:pageshadow="2"
     inkscape:zoom="0.58059858"
     inkscape:cx="372.04724"
     inkscape:cy="526.1811"
     inkscape:document-units="px"
     inkscape:current-layer="layer1"
     showgrid="false"
     inkscape:window-width="1314"
     inkscape:window-height="744"
     inkscape:window-x="52"
     inkscape:window-y="24"
     inkscape:window-maximized="1"
     units="px" />
  <metadata
     id="metadata7">
    <rdf:RDF>
      <cc:Work
         rdf:about="">
        <dc:format>image/svg+xml</dc:format>
        <dc:type
           rdf:resource="http://purl.org/dc/dcmitype/StillImage" />
        <dc:title></dc:title>
      </cc:Work>
    </rdf:RDF>
  </metadata>
  <g
     inkscape:label="Layer 1"
     inkscape:groupmode="layer"
     id="layer1"
     transform="translate(0,-890.78016)">
    <flowRoot
       xml:space="preserve"
       id="flowRoot3346"
       style="font-style:normal;font-weight:normal;font-size:40px;line-height:125%;font-family:sans-serif;letter-spacing:0px;word-spacing:0px;fill:#ffffff;fill-opacity:1;stroke:none;stroke-width:1px;stroke-linecap:butt;stroke-linejoin:miter;stroke-opacity:1;"
       transform="translate(-604.6486,-433.9578)"><flowRegion
         id="flowRegion3348"><rect
           id="rect3350"
           width="77.14286"
           height="114.28571"
           x="-482.85715"
           y="735.21936"
           style="fill:#ffffff;" /></flowRegion><flowPara
         id="flowPara3352" /></flowRoot>    <path
       id="path7650"
       d="m 5.6215,977.55296 c 0,0.72071 -0.57656,1.44141 -1.44141,1.44141 -0.72071,0 -1.29727,-0.57656 -1.29727,-1.44141 l 0,-10.5223 -1.72969,0 C 0.57656,967.03066 0,966.45409 0,965.87753 0,965.30097 0.57656,964.7244 1.15313,964.7244 l 1.72969,0 0,-1.58555 c 0,-3.74767 1.58555,-6.19807 5.47736,-6.19807 l 0.28828,0 c 0.72071,0 1.29727,0.57656 1.29727,1.29727 0,0.72071 -0.57656,1.29727 -1.29727,1.29727 l -0.43242,0 c -2.30626,0 -2.73868,1.87383 -2.59454,3.60353 l 0,1.58555 2.4504,0 c 0.57656,0 1.15313,0.57657 1.15313,1.15313 0,0.57656 -0.57657,1.15313 -1.15313,1.15313 l -2.4504,0 0,10.5223 z"
       class="st0"
       inkscape:connector-curvature="0"
       style="fill:#ffffff" />
    <path
       id="path7652"
       d="m 17.44107,967.1748 c -2.59454,0 -4.61251,1.87383 -4.61251,4.61252 0,2.73868 2.01797,4.75665 4.61251,4.75665 2.4504,0 4.75666,-1.72969 4.75666,-4.75665 -0.14414,-3.02697 -2.4504,-4.61252 -4.75666,-4.61252 m 4.75666,9.51331 c -1.00899,1.58556 -3.02696,2.4504 -4.9008,2.4504 -3.89181,0 -7.20705,-2.88282 -7.20705,-7.35119 0,-4.46838 3.31524,-7.3512 7.20705,-7.3512 2.01798,0 4.03595,0.86485 4.9008,2.4504 l 0,-0.86485 c 0,-0.7207 0.57656,-1.44141 1.29727,-1.44141 0.7207,0 1.44141,0.57656 1.44141,1.44141 l 0,11.67543 c 0,0.72071 -0.57656,1.44141 -1.44141,1.44141 -0.72071,0 -1.29727,-0.57656 -1.29727,-1.44141 l 0,-1.00899 z"
       class="st0"
       inkscape:connector-curvature="0"
       style="fill:#ffffff" />
    <path
       id="path7654"
       d="m 36.17942,976.39983 c 2.59454,0 4.61251,-1.87383 4.61251,-4.75666 0,-2.88282 -2.01797,-4.61251 -4.61251,-4.61251 -2.30626,0 -4.75666,1.58555 -4.75666,4.61251 0,3.02697 2.16212,4.75666 4.75666,4.75666 m -4.75666,-9.51331 c 1.00899,-1.58555 2.88282,-2.4504 4.9008,-2.4504 3.89181,0 7.20706,2.88282 7.20706,7.3512 0,4.46837 -3.31525,7.35119 -7.20706,7.35119 -2.01798,0 -4.03595,-0.86484 -4.9008,-2.4504 l 0,1.00899 c 0,0.72071 -0.57656,1.44141 -1.44141,1.44141 -0.72071,0 -1.29727,-0.57656 -1.29727,-1.44141 l 0,-19.45905 c 0,-0.72071 0.57656,-1.44141 1.29727,-1.44141 0.72071,0 1.44141,0.57656 1.44141,1.44141 l 0,8.64847 z"
       class="st0"
       inkscape:connector-curvature="0"
       style="fill:#ffffff" />
    <path
       id="path7656"
       d="m 49.29626,977.55296 c 0,0.72071 -0.57656,1.44141 -1.44141,1.44141 -0.72071,0 -1.29727,-0.57656 -1.29727,-1.44141 l 0,-19.31491 c 0,-0.72071 0.57656,-1.44141 1.29727,-1.44141 0.7207,0 1.44141,0.57656 1.44141,1.44141 l 0,19.31491 z"
       class="st0"
       inkscape:connector-curvature="0"
       style="fill:#ffffff" />
    <path
       id="path7658"
       d="m 59.67442,967.1748 c -2.59454,0 -4.61251,1.87383 -4.61251,4.61252 0,2.73868 2.01797,4.75665 4.61251,4.75665 2.4504,0 4.75666,-1.72969 4.75666,-4.75665 -0.14414,-3.02697 -2.59454,-4.61252 -4.75666,-4.61252 m 4.61252,9.51331 c -1.00899,1.58556 -3.02697,2.4504 -4.9008,2.4504 -3.89181,0 -7.20706,-2.88282 -7.20706,-7.35119 0,-4.46838 3.31525,-7.3512 7.20706,-7.3512 2.01797,0 4.03595,0.86485 4.9008,2.4504 l 0,-0.86485 c 0,-0.7207 0.57656,-1.44141 1.29727,-1.44141 0.7207,0 1.44141,0.57656 1.44141,1.44141 l 0,11.67543 c 0,0.72071 -0.57657,1.44141 -1.44141,1.44141 -0.72071,0 -1.29727,-0.57656 -1.29727,-1.44141 l 0,-1.00899 z"
       class="st0"
       inkscape:connector-curvature="0"
       style="fill:#ffffff" />
    <path
       id="path7660"
       d="m 78.41277,976.39983 c 2.59454,0 4.61251,-1.87383 4.61251,-4.75666 0,-2.88282 -2.01797,-4.61251 -4.61251,-4.61251 -2.30626,0 -4.75666,1.58555 -4.75666,4.61251 0,3.02697 2.16212,4.75666 4.75666,4.75666 m -4.75666,-9.51331 c 1.00899,-1.58555 2.88282,-2.4504 4.9008,-2.4504 3.89181,0 7.20705,2.88282 7.20705,7.3512 0,4.46837 -3.31524,7.35119 -7.20705,7.35119 -2.01798,0 -4.03595,-0.86484 -4.9008,-2.4504 l 0,1.00899 c 0,0.72071 -0.57656,1.44141 -1.44141,1.44141 -0.72071,0 -1.29727,-0.57656 -1.29727,-1.44141 l 0,-19.45905 c 0,-0.72071 0.57656,-1.44141 1.29727,-1.44141 0.7207,0 1.44141,0.57656 1.44141,1.44141 l 0,8.64847 z"
       class="st0"
       inkscape:connector-curvature="0"
       style="fill:#ffffff" />
    <polygon
       id="polygon7662"
       points="97.8,111.4 88.2,111.4 88.2,95.1 91.7,95.1 91.7,108.4 97.8,108.4 "
       class="st1"
       style="fill:#ffffff"
       transform="matrix(1.4414112,0,0,1.4414112,-123.96137,847.53767)" />
    <rect
       id="rect7664"
       height="23.495001"
       width="5.044939"
       class="st1"
       y="984.61591"
       x="19.603197"
       style="fill:#ffffff" />
    <polygon
       id="polygon7666"
       points="104.7,95.1 108.3,95.1 111.2,105.8 114.1,95.1 117.7,95.1 112.7,111.4 109.7,111.4 "
       class="st1"
       style="fill:#ffffff"
       transform="matrix(1.4414112,0,0,1.4414112,-123.96137,847.53767)" />
    <path
       id="path7668"
       d="m 53.18807,989.08425 0,6.63049 4.18009,0 c 1.87384,0 3.02697,-1.72969 3.02697,-3.31524 0,-1.44142 -1.00899,-3.31525 -2.88283,-3.31525 l -4.32423,0 z m 12.39614,19.02665 -6.05393,0 -5.18908,-8.0719 -1.15313,0 0,8.0719 -5.04494,0 0,-23.49502 9.65746,0 c 5.33322,0 7.78362,3.89181 7.78362,7.78362 0,3.31524 -1.87384,6.63049 -5.90979,7.49533 l 5.90979,8.21607 z"
       class="st1"
       inkscape:connector-curvature="0"
       style="fill:#ffffff" />
    <polygon
       id="polygon7670"
       points="144.6,111.4 134.1,111.4 134.1,95.1 144.4,95.1 144.4,98.2 137.5,98.2 137.5,101.9 143.6,101.9 143.6,104.9 137.5,104.9 137.5,108.4 144.6,108.4 "
       class="st1"
       style="fill:#ffffff"
       transform="matrix(1.4414112,0,0,1.4414112,-123.96137,847.53767)" />
    <path
       id="path7672"
       d="m 2.73868,1023.8223 c 0,6.3422 5.18908,11.5313 11.53129,11.5313 l 17.00865,0 c 3.1711,0 4.61252,2.7386 4.61252,5.3332 0,2.5945 -1.44142,5.3332 -4.61252,5.3332 l -28.53994,0 0,6.3422 28.68408,0 c 6.34221,0 11.53129,-5.1891 11.53129,-11.5313 0,-6.4863 -5.18908,-11.6754 -11.53129,-11.6754 l -17.15279,0 c -3.17111,0 -4.61252,-2.7387 -4.61252,-5.3332 0,-2.7387 1.44141,-5.3333 4.61252,-5.3333 l 28.68408,0 0,-6.3422 -28.68408,0 c -6.34221,0 -11.53129,5.1891 -11.53129,11.6755"
       class="st0"
       inkscape:connector-curvature="0"
       style="fill:#ffffff" />
    <path
       id="path7674"
       d="m 72.9354,1012.1468 -28.53994,0 0,40.2154 7.06292,0 0,-15.1348 21.47702,0 c 6.48635,0 11.67543,-5.1891 11.67543,-11.6754 l 0,-1.8739 c 0,-6.3422 -5.33322,-11.5313 -11.67543,-11.5313 m 0,18.8825 -21.47702,0 0,-12.5403 21.47702,0 c 3.17111,0 4.61252,2.7387 4.61252,5.3333 l 0,1.8738 c 0,2.5945 -1.44141,5.3332 -4.61252,5.3332"
       class="st0"
       inkscape:connector-curvature="0"
       style="fill:#ffffff" />
    <polygon
       id="polygon7676"
       points="99,40.2 116.5,50.3 134,40.2 116.5,30 "
       class="st1"
       style="fill:#ffffff"
       transform="matrix(1.4414112,0,0,1.4414112,-123.96137,847.53767)" />
    <polygon
       id="polygon7678"
       points="99,61.6 115.8,71.3 115.8,51.7 99,42 "
       class="st1"
       style="fill:#ffffff"
       transform="matrix(1.4414112,0,0,1.4414112,-123.96137,847.53767)" />
    <polygon
       id="polygon7680"
       points="134,61.6 117.2,71.3 117.2,51.7 134,42 "
       class="st1"
       style="fill:#ffffff"
       transform="matrix(1.4414112,0,0,1.4414112,-123.96137,847.53767)" />
  </g>
  <style
     type="text/css"
     id="style7646">
	.st0{fill:#AE0000;}
	.st1{fill:#071224;}
	.st2{fill-rule:evenodd;clip-rule:evenodd;}
	.st3{stroke:#13007C;stroke-width:0.216;stroke-miterlimit:22.9256;}
	.st4{fill-rule:evenodd;clip-rule:evenodd;fill:#008837;}
	.st5{fill-rule:evenodd;clip-rule:evenodd;fill:#FF0000;}
	.st6{fill-rule:evenodd;clip-rule:evenodd;fill:#CCCCCC;}
	.st7{fill-rule:evenodd;clip-rule:evenodd;fill:#FFFFFF;}
	.st8{fill-rule:evenodd;clip-rule:evenodd;fill:#FFD900;}
	.st9{fill:none;stroke:#13007C;stroke-width:0.216;stroke-miterlimit:22.9256;}
	.st10{fill:#333333;}
	.st11{fill-rule:evenodd;clip-rule:evenodd;fill:#FFF232;}
	.st12{fill-rule:evenodd;clip-rule:evenodd;fill:#01A0C5;}
	.st13{fill-rule:evenodd;clip-rule:evenodd;fill:#0D2580;}
</style>
</svg>
